<?xml version="1.0" encoding="UTF-8"?>
<!DOCTYPE svg PUBLIC "-//W3C//DTD SVG 1.1//EN" "http://www.w3.org/Graphics/SVG/1.1/DTD/svg11.dtd">
<!-- Creator: CorelDRAW 2020 (64-Bit) -->
<svg xmlns="http://www.w3.org/2000/svg" xml:space="preserve" width="1.75741in" height="1.73175in" version="1.1" style="shape-rendering:geometricPrecision; text-rendering:geometricPrecision; image-rendering:optimizeQuality; fill-rule:evenodd; clip-rule:evenodd"
viewBox="0 0 1992.77 1963.68"
 xmlns:xlink="http://www.w3.org/1999/xlink"
 xmlns:xodm="http://www.corel.com/coreldraw/odm/2003">
 <defs>
  <style type="text/css">
   <![CDATA[
    .fil2 {fill:none}
    .fil0 {fill:#2A9DF4}
    .fil1 {fill:white}
    .fil4 {fill:white;fill-rule:nonzero}
    .fil3 {fill:white;fill-rule:nonzero}
   ]]>
  </style>
   <clipPath id="id0">
    <path d="M341.82 0l1309.12 0c188,0 341.82,153.82 341.82,341.82l0 1280.03c0,188 -153.82,341.82 -341.82,341.82l-1309.12 0c-188,0 -341.82,-153.82 -341.82,-341.82l0 -1280.03c0,-188 153.82,-341.82 341.82,-341.82z"/>
   </clipPath>
 </defs>
 <g id="Layer_x0020_1">
  <metadata id="CorelCorpID_0Corel-Layer"/>
  <path class="fil0" d="M341.82 0l1309.12 0c188,0 341.82,153.82 341.82,341.82l0 1280.03c0,188 -153.82,341.82 -341.82,341.82l-1309.12 0c-188,0 -341.82,-153.82 -341.82,-341.82l0 -1280.03c0,-188 153.82,-341.82 341.82,-341.82z"/>
  <g style="clip-path:url(#id0)">
   <g id="_2879624951504">
    <rect class="fil1" transform="matrix(0.226303 0.279146 -0.279146 0.226303 785.212 1045.2)" width="213.54" height="4659.1" rx="106.77" ry="106.77"/>
    <rect class="fil1" transform="matrix(0.226303 0.279146 -0.279146 0.226303 810.983 484.957)" width="213.54" height="4659.1" rx="106.77" ry="106.77"/>
    <rect class="fil1" transform="matrix(0.226303 0.279146 -0.279146 0.226303 1333.69 1101.17)" width="213.54" height="4659.1" rx="106.77" ry="106.77"/>
   </g>
  </g>
  <path class="fil2" d="M341.82 0l1309.12 0c188,0 341.82,153.82 341.82,341.82l0 1280.03c0,188 -153.82,341.82 -341.82,341.82l-1309.12 0c-188,0 -341.82,-153.82 -341.82,-341.82l0 -1280.03c0,-188 153.82,-341.82 341.82,-341.82z"/>
  <path class="fil3" d="M1744.9 255.85c-10.8,4.99 -271.41,211.23 -271.41,211.23 -262.95,-61.87 -491.69,-116.83 -760.56,-186.22l-53.48 45.9 176.82 98.34c-10.92,15.52 -27.74,41.99 -20.75,49.74 7.47,7.53 39.96,-15.53 57.88,-29.37l99.54 55.55c0,0 -39.4,50.81 -29.5,61.55 10.22,11.18 70.35,-38.87 70.35,-38.87l88.84 49.01c0,0 -40.07,55 -23.34,68.07 16.35,13.17 79.99,-38.52 79.99,-38.52l91.63 45.12c-194.23,151.14 -346.53,306.1 -346.53,306.1l-243.36 -41.71 -41.74 45.53c250.32,99.91 223.23,84.25 270.7,337.57l55.28 -18.96 16.94 -251.81c0,0 22.74,-11.87 78.93,-52.63 55.76,-40.14 290.23,-216.37 290.23,-216.37l18.28 95.99c0,0 -63.68,53.19 -57.55,65.68 5.45,12.2 74.38,-29.19 74.38,-29.19l34.11 118.79c0,0 -56.29,41.8 -46.11,54.49 9.49,12.4 56.98,-13.58 56.98,-13.58l28.12 100.26c-16.25,16.28 -41.5,44.49 -34.82,52.81 6.34,6.94 29.49,-3.12 46.06,-12.02l56.69 201.87 70.9 -46.51c-13.43,-272.9 -27.97,-514.01 -21.55,-779.84 207.12,-178.79 243.4,-208.61 243.4,-208.61 89.61,-105.58 97.02,-177.95 -55.34,-99.37l0 0z"/>
  <path class="fil4" d="M1628.66 140.41c-0.3,3.08 -0.2,6.21 -0.28,9.38 -0.04,1.54 -0.08,3.11 -0.56,4.58 -0.28,0.85 -1.05,1.81 -1.89,1.48 -0.49,-0.19 -0.72,-0.74 -0.87,-1.24 -0.4,-1.37 -0.53,-2.8 -0.66,-4.22 -0.46,-5.12 -0.07,-11.31 -1.87,-16.15 -1.5,-4.04 -4.46,-7.49 -8.25,-9.55 -2.48,-1.35 -5.06,-2.08 -7.89,-2.22 -0.95,-0.05 -12.98,-0.85 -14.19,-1.07 -0.47,-0.09 -0.96,-0.18 -1.36,-0.45 -0.4,-0.27 -0.69,-0.75 -0.58,-1.22 0.18,-0.78 1.2,-0.96 2,-0.97 6.69,-0.15 14.94,-0.32 21.12,-3.24 2.37,-1.11 4.48,-2.75 6.16,-4.77 2.77,-3.34 3.7,-7.37 3.67,-11.59 -0.04,-5.27 0.46,-10.61 1.06,-15.84 0.05,-0.45 0.15,-0.96 0.54,-1.17 0.58,-0.32 1.25,0.26 1.58,0.83 1.27,2.15 0.82,4.36 2.21,14.56 0.72,5.31 1.16,9.32 4.64,13.41 1.67,1.96 3.77,3.56 6.11,4.64 3.37,1.56 7.04,1.77 10.7,2.09 5.32,0.46 8.37,0.66 12.47,0.67 0.93,0 2.39,0.08 2.4,1 0.01,1.88 -6.41,1.21 -11.71,1.79 -6.02,0.67 -9.13,-0.2 -16.83,5.08 -3.01,2.07 -5.31,4.89 -6.52,8.35 -0.67,1.92 -1.03,3.87 -1.22,5.83z"/>
  <path class="fil4" d="M1914.91 430.42c-0.3,3.08 -0.2,6.21 -0.27,9.38 -0.04,1.54 -0.08,3.11 -0.56,4.58 -0.28,0.85 -1.04,1.81 -1.88,1.48 -0.49,-0.19 -0.72,-0.74 -0.87,-1.24 -0.4,-1.37 -0.53,-2.8 -0.66,-4.22 -0.46,-5.12 -0.07,-11.31 -1.87,-16.15 -1.5,-4.04 -4.46,-7.49 -8.25,-9.55 -2.48,-1.35 -5.06,-2.08 -7.89,-2.22 -0.95,-0.05 -12.98,-0.85 -14.19,-1.07 -0.47,-0.09 -0.96,-0.18 -1.35,-0.45 -0.4,-0.27 -0.69,-0.75 -0.59,-1.22 0.18,-0.78 1.2,-0.96 2,-0.97 6.7,-0.15 14.95,-0.32 21.13,-3.24 2.37,-1.11 4.48,-2.75 6.15,-4.77 2.77,-3.34 3.7,-7.37 3.67,-11.59 -0.04,-5.27 0.47,-10.61 1.06,-15.84 0.05,-0.45 0.15,-0.96 0.54,-1.17 0.58,-0.32 1.24,0.26 1.58,0.83 1.27,2.15 0.81,4.36 2.21,14.56 0.72,5.31 1.16,9.32 4.65,13.41 1.67,1.96 3.77,3.56 6.11,4.64 3.36,1.56 7.04,1.77 10.7,2.09 5.32,0.46 8.36,0.66 12.47,0.67 0.92,0 2.39,0.08 2.4,1 0.02,1.88 -6.41,1.21 -11.71,1.8 -6.02,0.67 -9.13,-0.2 -16.83,5.08 -3.01,2.07 -5.3,4.89 -6.51,8.35 -0.67,1.92 -1.03,3.87 -1.22,5.83z"/>
  <path class="fil4" d="M1930.99 305.07c-0.3,3.08 -0.2,6.21 -0.27,9.38 -0.04,1.54 -0.08,3.11 -0.56,4.58 -0.28,0.85 -1.04,1.81 -1.88,1.48 -0.49,-0.19 -0.72,-0.73 -0.87,-1.23 -0.4,-1.37 -0.53,-2.8 -0.66,-4.22 -0.46,-5.12 -0.07,-11.31 -1.87,-16.15 -1.5,-4.04 -4.46,-7.49 -8.25,-9.55 -2.48,-1.35 -5.06,-2.08 -7.89,-2.22 -0.95,-0.05 -12.98,-0.85 -14.19,-1.07 -0.47,-0.09 -0.96,-0.18 -1.35,-0.45 -0.4,-0.27 -0.69,-0.75 -0.59,-1.22 0.18,-0.78 1.2,-0.96 2,-0.97 6.7,-0.15 14.95,-0.32 21.13,-3.24 2.37,-1.11 4.48,-2.75 6.15,-4.77 2.77,-3.34 3.7,-7.37 3.67,-11.59 -0.04,-5.27 0.47,-10.61 1.06,-15.84 0.05,-0.45 0.15,-0.96 0.54,-1.18 0.58,-0.32 1.24,0.26 1.58,0.83 1.27,2.15 0.81,4.36 2.21,14.56 0.72,5.31 1.16,9.32 4.65,13.41 1.67,1.96 3.77,3.56 6.11,4.64 3.36,1.56 7.04,1.77 10.7,2.09 5.32,0.46 8.36,0.66 12.47,0.67 0.93,0 2.39,0.08 2.4,1 0.01,1.88 -6.41,1.21 -11.71,1.79 -6.02,0.67 -9.13,-0.2 -16.83,5.08 -3.01,2.07 -5.3,4.89 -6.51,8.35 -0.67,1.92 -1.03,3.86 -1.22,5.83z"/>
  <path class="fil4" d="M1811.24 155.62c-0.3,3.08 -0.2,6.21 -0.28,9.38 -0.04,1.54 -0.08,3.11 -0.56,4.58 -0.28,0.85 -1.05,1.81 -1.89,1.48 -0.49,-0.19 -0.72,-0.74 -0.87,-1.23 -0.4,-1.37 -0.53,-2.8 -0.66,-4.23 -0.46,-5.12 -0.07,-11.31 -1.87,-16.14 -1.5,-4.04 -4.46,-7.5 -8.25,-9.55 -2.48,-1.35 -5.06,-2.09 -7.89,-2.23 -0.95,-0.05 -12.98,-0.85 -14.19,-1.07 -0.47,-0.09 -0.95,-0.18 -1.35,-0.45 -0.4,-0.26 -0.69,-0.75 -0.58,-1.21 0.18,-0.78 1.19,-0.96 2,-0.97 6.7,-0.15 14.95,-0.32 21.13,-3.23 2.37,-1.12 4.48,-2.76 6.16,-4.77 2.77,-3.34 3.7,-7.37 3.67,-11.59 -0.04,-5.27 0.46,-10.61 1.06,-15.84 0.05,-0.44 0.15,-0.96 0.54,-1.17 0.58,-0.32 1.25,0.26 1.58,0.83 1.27,2.15 0.82,4.37 2.21,14.57 0.72,5.3 1.16,9.31 4.64,13.4 1.67,1.96 3.77,3.56 6.11,4.64 3.36,1.55 7.04,1.77 10.7,2.08 5.32,0.46 8.37,0.66 12.47,0.67 0.93,0 2.39,0.08 2.4,1 0.01,1.88 -6.41,1.21 -11.71,1.8 -6.02,0.67 -9.13,-0.2 -16.83,5.08 -3,2.07 -5.3,4.88 -6.51,8.34 -0.67,1.92 -1.03,3.87 -1.22,5.83z"/>
 </g>
</svg>
